<?xml version="1.0" encoding="UTF-8" standalone="no"?>
<!-- Created with Inkscape (http://www.inkscape.org/) -->

<svg
   xmlns:dc="http://purl.org/dc/elements/1.1/"
   xmlns:cc="http://creativecommons.org/ns#"
   xmlns:rdf="http://www.w3.org/1999/02/22-rdf-syntax-ns#"
   xmlns:svg="http://www.w3.org/2000/svg"
   xmlns="http://www.w3.org/2000/svg"
   xmlns:sodipodi="http://sodipodi.sourceforge.net/DTD/sodipodi-0.dtd"
   xmlns:inkscape="http://www.inkscape.org/namespaces/inkscape"
   width="1614.2812"
   height="257.125"
   id="svg2"
   version="1.1"
   inkscape:version="0.48.2 r9819"
   sodipodi:docname="Clouds2.svg">
  <defs
     id="defs4" />
  <sodipodi:namedview
     id="base"
     pagecolor="#ffffff"
     bordercolor="#666666"
     borderopacity="1.0"
     inkscape:pageopacity="0.0"
     inkscape:pageshadow="2"
     inkscape:zoom="0.35"
     inkscape:cx="659.11132"
     inkscape:cy="-163.24404"
     inkscape:document-units="px"
     inkscape:current-layer="layer1"
     showgrid="false"
     fit-margin-top="0"
     fit-margin-left="0"
     fit-margin-right="0"
     fit-margin-bottom="0"
     inkscape:window-width="1676"
     inkscape:window-height="1006"
     inkscape:window-x="0"
     inkscape:window-y="0"
     inkscape:window-maximized="1"
     inkscape:object-paths="true"
     inkscape:object-nodes="true" />
  <metadata
     id="metadata7">
    <rdf:RDF>
      <cc:Work
         rdf:about="">
        <dc:format>image/svg+xml</dc:format>
        <dc:type
           rdf:resource="http://purl.org/dc/dcmitype/StillImage" />
        <dc:title></dc:title>
      </cc:Work>
    </rdf:RDF>
  </metadata>
  <g
     inkscape:label="Layer 1"
     inkscape:groupmode="layer"
     id="layer1"
     transform="translate(1.8245904,53.70001)">
    <path
       style="fill:#ffffff;fill-opacity:0.29411765;stroke:none"
       d="m 1084.0504,-119.70001 c -120.91251,0 -218.97939,57.69177 -243.06249,132.65625 -29.7267,-40.8805 -95.8411,-70.53125 -169.0625,-70.53125 -88.2031,0 -161.93215,40.95536 -180.03125,95.65625 -25.8256,-31.98758 -72.5948,-54.9375 -127.8125,-54.9375 -79.2502,0 -155.5277,44.32293 -160.4375,100.3125 -24.8295,-18.09823 -51.9734,-28.15625 -93.5,-28.15625 -26.525713,0 -51.26512,4.68017 -72.15625,12.78125 C 28.636424,51.03892 13.53864,35.67571 -5.8245904,22.86249 -14.082758,17.78174 -22.865457,13.24126 -31.98084,9.20624 l 0,128.21875 26.1562496,0 1614.2811904,0 31.9688,0 0,-86.53125 c -8.5815,-10.26259 -19.3632,-19.6898 -31.9688,-28.03125 -43.5491,-26.79327 -101.8626,-38.7363 -144.9374,-39.09375 -50.7935,0 -97.1513,11.87081 -132.375,31.4375 -21.8895,-76.81167 -124.1888,-134.90625 -247.0938,-134.90625 z"
       id="path3916"
       inkscape:connector-curvature="0" />
  </g>
</svg>
